<svg xmlns="http://www.w3.org/2000/svg" xmlns:xlink="http://www.w3.org/1999/xlink" width="600" height="345" viewBox="0 0 602 347">
    <defs>
        <rect id="c" width="20" height="20" rx="10"/>
        <filter id="b" width="260%" height="260%" x="-80%" y="-70%" filterUnits="objectBoundingBox">
            <feOffset dy="2" in="SourceAlpha" result="shadowOffsetOuter1"/>
            <feGaussianBlur in="shadowOffsetOuter1" result="shadowBlurOuter1" stdDeviation="5"/>
            <feColorMatrix in="shadowBlurOuter1" values="0 0 0 0 0.941176471 0 0 0 0 0.152941176 0 0 0 0 0.0705882353 0 0 0 0.5 0"/>
        </filter>
        <path id="a" d="M78 0h78v8H78z"/>
        <mask id="d" width="78" height="8" x="0" y="0" fill="#fff">
            <use xlink:href="#a"/>
        </mask>
        <rect id="f" width="20" height="20" rx="10"/>
        <filter id="e" width="260%" height="260%" x="-80%" y="-70%" filterUnits="objectBoundingBox">
            <feOffset dy="2" in="SourceAlpha" result="shadowOffsetOuter1"/>
            <feGaussianBlur in="shadowOffsetOuter1" result="shadowBlurOuter1" stdDeviation="5"/>
            <feColorMatrix in="shadowBlurOuter1" values="0 0 0 0 0.941176471 0 0 0 0 0.152941176 0 0 0 0 0.0705882353 0 0 0 0.5 0"/>
        </filter>
        <rect id="h" width="20" height="20" x="30" rx="10"/>
        <filter id="g" width="260%" height="260%" x="-80%" y="-70%" filterUnits="objectBoundingBox">
            <feOffset dy="2" in="SourceAlpha" result="shadowOffsetOuter1"/>
            <feGaussianBlur in="shadowOffsetOuter1" result="shadowBlurOuter1" stdDeviation="5"/>
            <feColorMatrix in="shadowBlurOuter1" values="0 0 0 0 0.941176471 0 0 0 0 0.152941176 0 0 0 0 0.0705882353 0 0 0 0.5 0"/>
        </filter>
    </defs>
    <g fill="none" fill-rule="evenodd">
        <path fill="#F02712" fill-opacity=".1" stroke="#F02712" stroke-width="2" d="M63.5 342.406c-3.86 0-5.5-2.379-5.5-7.556V16.113C58 7.683 64.696 1 73.124 1h456.47c8.428 0 15.125 6.683 15.125 15.113V334.85c0 5.177-1.64 7.556-5.5 7.556H63.5z"/>
        <path fill="#FDE9E7" stroke="#F02712" stroke-width="2" d="M25.77 345.625c-13.948 0-19.389-4.98-23.394-7.102-.868-.455-1.376-1.32-1.376-2.131V330h600v6.392c0 .812-.509 1.677-1.376 2.13-4.005 2.122-9.446 7.103-23.395 7.103H25.771z"/>
        <path fill="#EDF8FF" stroke="#F02712" stroke-width="2" d="M265.837 335.837c-3.331 0-4.966-3.988-5.462-5.468h81.25c-.496 1.48-2.13 5.468-5.462 5.468h-70.326z"/>
        <g transform="translate(71.75 24.119)">
            <path fill="#FFF" stroke="#F02712" d="M.689.5C.558.5.5.56.5.708V286.01c0 .149.058.208.189.208h457.216c.131 0 .189-.06.189-.208V.708c0-.149-.058-.208-.189-.208H.69z"/>
            <rect width="370.584" height="14.796" x="44.25" y="25.881" fill="#CCC" opacity=".6" rx="7.398"/>
            <rect width="323.504" height="14.796" x="67.25" y="48.881" fill="#CCC" opacity=".6" rx="7.398"/>
            <g stroke="#CCC" transform="translate(36.25 161.881)">
                <rect width="385" height="7" x=".5" y=".5" rx="3.5"/>
                <path d="M78.5 7.5v-7H4a3.5 3.5 0 0 0 0 7h74.5zM307.5 7.5v-7H382a3.5 3.5 0 1 1 0 7h-74.5zM78.5.5h77v7h-77zM155.5.5h76v7h-76z"/>
                <path fill="#F2412F" d="M231.5.5h76v7h-76z"/>
            </g>
            <g fill="#CCC" opacity=".6" transform="translate(36.25 177.881)">
                <rect width="140.584" height="14.796" rx="7.398"/>
                <rect width="140.584" height="14.796" x="245" rx="7.398"/>
            </g>
            <g transform="translate(296.25 155.881)">
                <use fill="#000" filter="url(#b)" xlink:href="#c"/>
                <use fill="#FFF" xlink:href="#c"/>
                <rect width="8" height="8" x="6" y="6" fill="#F2412F" rx="4"/>
            </g>
            <g>
                <g transform="translate(36.25 223.881)">
                    <rect width="385" height="7" x=".5" y=".5" stroke="#CCC" rx="3.5"/>
                    <path stroke="#CCC" d="M78.5 7.5v-7H4a3.5 3.5 0 0 0 0 7h74.5zM307.5 7.5v-7H382a3.5 3.5 0 1 1 0 7h-74.5zM155.5.5h76v7h-76z"/>
                    <use fill="#F2412F" fill-opacity=".1" stroke="#F2412F" stroke-dasharray="2,1" stroke-linejoin="round" stroke-width="2" mask="url(#d)" xlink:href="#a"/>
                </g>
                <g fill="#CCC" opacity=".6" transform="translate(36.25 239.881)">
                    <rect width="140.584" height="14.796" rx="7.398"/>
                    <rect width="140.584" height="14.796" x="245" rx="7.398"/>
                </g>
                <g transform="translate(219.25 217.881)">
                    <use fill="#000" filter="url(#e)" xlink:href="#f"/>
                    <use fill="#FFF" xlink:href="#f"/>
                    <rect width="8" height="8" x="6" y="6" fill="#F2412F" rx="4"/>
                </g>
            </g>
            <g>
                <g stroke="#CCC" transform="translate(36.25 99.881)">
                    <rect width="385" height="7" x=".5" y=".5" rx="3.5"/>
                    <path d="M78.5 7.5v-7H4a3.5 3.5 0 0 0 0 7h74.5zM307.5 7.5v-7H382a3.5 3.5 0 1 1 0 7h-74.5zM78.5.5h77v7h-77zM155.5.5h76v7h-76zM231.5.5h76v7h-76z"/>
                </g>
                <g fill="#CCC" opacity=".6" transform="translate(36.25 115.881)">
                    <rect width="140.584" height="14.796" rx="7.398"/>
                    <rect width="140.584" height="14.796" x="245" rx="7.398"/>
                </g>
                <g transform="translate(189.25 93.881)">
                    <use fill="#000" filter="url(#g)" xlink:href="#h"/>
                    <use fill="#FFF" xlink:href="#h"/>
                    <g stroke="#F2412F" stroke-linecap="round" stroke-width="2">
                        <path d="M25.175 4L20 10.175l5.175 6.175" opacity=".2"/>
                        <path d="M15.175 4L10 10.175l5.175 6.175M5.175 4L0 10.175l5.175 6.175"/>
                    </g>
                    <g stroke="#F2412F" stroke-linecap="round" stroke-width="2">
                        <path d="M54.825 4L60 10.175l-5.175 6.175" opacity=".2"/>
                        <path d="M64.825 4L70 10.175l-5.175 6.175M74.825 4L80 10.175l-5.175 6.175"/>
                    </g>
                    <rect width="8" height="8" x="36" y="6" fill="#F2412F" rx="4"/>
                </g>
            </g>
        </g>
    </g>
</svg>
